{
  "accessors": [
    {
      "bufferView": 2,
      "componentType": 5126,
      "count": 65532,
      "max": [
        5.30935001373291,
        16.425981521606445,
        10.468977928161621
      ],
      "min": [
        -5.3905134201049805,
        -0.0001013082146528177,
        -10.894184112548828
      ],
      "type": "VEC3"
    },
    {
      "bufferView": 2,
      "byteOffset": 786384,
      "componentType": 5126,
      "count": 65532,
      "max": [
        0.9999892711639404,
        1.0,
        0.9999998807907104
      ],
      "min": [
        -0.9999874830245972,
        -1.0,
        -0.9999840259552002
      ],
      "type": "VEC3"
    },
    {
      "bufferView": 1,
      "componentType": 5126,
      "count": 65532,
      "max": [
        0.9908261299133301,
        0.989133358001709
      ],
      "min": [
        4.952327435603365e-05,
        0.0005773485754616559
      ],
      "type": "VEC2"
    },
    {
      "bufferView": 0,
      "componentType": 5125,
      "count": 295128,
      "type": "SCALAR"
    },
    {
      "bufferView": 2,
      "byteOffset": 1572768,
      "componentType": 5126,
      "count": 65532,
      "max": [
        5.298619747161865,
        16.421123504638672,
        10.468977928161621
      ],
      "min": [
        -5.32304048538208,
        -0.0001013082146528177,
        -10.952070236206055
      ],
      "type": "VEC3"
    },
    {
      "bufferView": 2,
      "byteOffset": 2359152,
      "componentType": 5126,
      "count": 65532,
      "max": [
        0.9999997615814209,
        1.0,
        0.9999988079071045
      ],
      "min": [
        -0.9999997615814209,
        -0.9995541572570801,
        -0.9999881982803345
      ],
      "type": "VEC3"
    },
    {
      "bufferView": 1,
      "byteOffset": 524256,
      "componentType": 5126,
      "count": 65532,
      "max": [
        0.9997048377990723,
        0.98944491147995
      ],
      "min": [
        0.0,
        0.0001163482666015625
      ],
      "type": "VEC2"
    },
    {
      "bufferView": 0,
      "byteOffset": 1180512,
      "componentType": 5125,
      "count": 293946,
      "type": "SCALAR"
    },
    {
      "bufferView": 2,
      "byteOffset": 3145536,
      "componentType": 5126,
      "count": 65532,
      "max": [
        5.308274269104004,
        15.476458549499512,
        10.432848930358887
      ],
      "min": [
        -5.298574924468994,
        -4.677866672864184e-05,
        -10.943209648132324
      ],
      "type": "VEC3"
    },
    {
      "bufferView": 2,
      "byteOffset": 3931920,
      "componentType": 5126,
      "count": 65532,
      "max": [
        0.9999997615814209,
        1.0,
        0.9999990463256836
      ],
      "min": [
        -0.9999992847442627,
        -0.999902606010437,
        -0.9999997615814209
      ],
      "type": "VEC3"
    },
    {
      "bufferView": 1,
      "byteOffset": 1048512,
      "componentType": 5126,
      "count": 65532,
      "max": [
        0.9994829893112183,
        0.9898940324783325
      ],
      "min": [
        0.0,
        0.0
      ],
      "type": "VEC2"
    },
    {
      "bufferView": 0,
      "byteOffset": 2356296,
      "componentType": 5125,
      "count": 279441,
      "type": "SCALAR"
    },
    {
      "bufferView": 2,
      "byteOffset": 4718304,
      "componentType": 5126,
      "count": 65532,
      "max": [
        5.310473442077637,
        16.428041458129883,
        10.113143920898438
      ],
      "min": [
        -5.3905134201049805,
        -2.268890784762334e-05,
        -10.475107192993164
      ],
      "type": "VEC3"
    },
    {
      "bufferView": 2,
      "byteOffset": 5504688,
      "componentType": 5126,
      "count": 65532,
      "max": [
        0.9999990463256836,
        1.0,
        0.9999990463256836
      ],
      "min": [
        -0.9999988079071045,
        -0.9968316555023193,
        -0.9993762969970703
      ],
      "type": "VEC3"
    },
    {
      "bufferView": 1,
      "byteOffset": 1572768,
      "componentType": 5126,
      "count": 65532,
      "max": [
        0.994603157043457,
        0.9898941516876221
      ],
      "min": [
        0.0,
        0.0031855187844485044
      ],
      "type": "VEC2"
    },
    {
      "bufferView": 0,
      "byteOffset": 3474060,
      "componentType": 5125,
      "count": 248004,
      "type": "SCALAR"
    },
    {
      "bufferView": 2,
      "byteOffset": 6291072,
      "componentType": 5126,
      "count": 65532,
      "max": [
        5.306672096252441,
        16.425981521606445,
        10.468977928161621
      ],
      "min": [
        -5.3905134201049805,
        -8.739288750803098e-05,
        -10.94462776184082
      ],
      "type": "VEC3"
    },
    {
      "bufferView": 2,
      "byteOffset": 7077456,
      "componentType": 5126,
      "count": 65532,
      "max": [
        0.9999997615814209,
        1.0,
        0.9999998807907104
      ],
      "min": [
        -0.9999997615814209,
        -0.9998997449874878,
        -0.9999935626983643
      ],
      "type": "VEC3"
    },
    {
      "bufferView": 1,
      "byteOffset": 2097024,
      "componentType": 5126,
      "count": 65532,
      "max": [
        0.9984890222549438,
        0.9899668097496033
      ],
      "min": [
        0.0,
        0.00037288665771484375
      ],
      "type": "VEC2"
    },
    {
      "bufferView": 0,
      "byteOffset": 4466076,
      "componentType": 5125,
      "count": 236496,
      "type": "SCALAR"
    },
    {
      "bufferView": 2,
      "byteOffset": 7863840,
      "componentType": 5126,
      "count": 4749,
      "max": [
        5.307147026062012,
        16.428041458129883,
        10.453453063964844
      ],
      "min": [
        -5.319246768951416,
        -1.4882815776218195e-05,
        -10.888274192810059
      ],
      "type": "VEC3"
    },
    {
      "bufferView": 2,
      "byteOffset": 7920828,
      "componentType": 5126,
      "count": 4749,
      "max": [
        0.9999967813491821,
        0.9999946355819702,
        0.9999872446060181
      ],
      "min": [
        -0.9999845027923584,
        -0.9914693832397461,
        -0.9999438524246216
      ],
      "type": "VEC3"
    },
    {
      "bufferView": 1,
      "byteOffset": 2621280,
      "componentType": 5126,
      "count": 4749,
      "max": [
        0.9899015426635742,
        0.9898987412452698
      ],
      "min": [
        0.0030946731567382813,
        0.0005903244018554688
      ],
      "type": "VEC2"
    },
    {
      "bufferView": 0,
      "byteOffset": 5412060,
      "componentType": 5125,
      "count": 5754,
      "type": "SCALAR"
    }
  ],
  "asset": {
    "extras": {
      "author": "renderpunk (https://sketchfab.com/renderpunk)",
      "license": "CC-BY-SA-4.0 (http://creativecommons.org/licenses/by-sa/4.0/)",
      "source": "https://sketchfab.com/3d-models/korean-lion-statue-scan-f72ce3251d7c468ab68ea32e681b8f1d",
      "title": "Korean Lion Statue Scan"
    },
    "generator": "Sketchfab-12.65.0",
    "version": "2.0"
  },
  "bufferViews": [
    {
      "buffer": 0,
      "byteLength": 5435076,
      "name": "floatBufferViews",
      "target": 34963
    },
    {
      "buffer": 0,
      "byteLength": 2659272,
      "byteOffset": 5435076,
      "byteStride": 8,
      "name": "floatBufferViews",
      "target": 34962
    },
    {
      "buffer": 0,
      "byteLength": 7977816,
      "byteOffset": 8094348,
      "byteStride": 12,
      "name": "floatBufferViews",
      "target": 34962
    }
  ],
  "buffers": [
    {
      "byteLength": 16072164,
      "uri": "scene.bin"
    }
  ],
  "materials": [
    {
      "doubleSided": true,
      "name": "Default_OBJ",
      "pbrMetallicRoughness": {
        "metallicFactor": 0.0,
        "roughnessFactor": 0.8529342915686239
      }
    }
  ],
  "meshes": [
    {
      "name": "Object_0",
      "primitives": [
        {
          "attributes": {
            "NORMAL": 1,
            "POSITION": 0,
            "TEXCOORD_0": 2
          },
          "indices": 3,
          "material": 0,
          "mode": 4
        }
      ]
    },
    {
      "name": "Object_1",
      "primitives": [
        {
          "attributes": {
            "NORMAL": 5,
            "POSITION": 4,
            "TEXCOORD_0": 6
          },
          "indices": 7,
          "material": 0,
          "mode": 4
        }
      ]
    },
    {
      "name": "Object_2",
      "primitives": [
        {
          "attributes": {
            "NORMAL": 9,
            "POSITION": 8,
            "TEXCOORD_0": 10
          },
          "indices": 11,
          "material": 0,
          "mode": 4
        }
      ]
    },
    {
      "name": "Object_3",
      "primitives": [
        {
          "attributes": {
            "NORMAL": 13,
            "POSITION": 12,
            "TEXCOORD_0": 14
          },
          "indices": 15,
          "material": 0,
          "mode": 4
        }
      ]
    },
    {
      "name": "Object_4",
      "primitives": [
        {
          "attributes": {
            "NORMAL": 17,
            "POSITION": 16,
            "TEXCOORD_0": 18
          },
          "indices": 19,
          "material": 0,
          "mode": 4
        }
      ]
    },
    {
      "name": "Object_5",
      "primitives": [
        {
          "attributes": {
            "NORMAL": 21,
            "POSITION": 20,
            "TEXCOORD_0": 22
          },
          "indices": 23,
          "material": 0,
          "mode": 4
        }
      ]
    }
  ],
  "nodes": [
    {
      "children": [
        1
      ],
      "matrix": [
        1.0,
        0.0,
        0.0,
        0.0,
        0.0,
        3.828568672208042e-16,
        -1.0,
        0.0,
        0.0,
        1.0,
        3.828568672208042e-16,
        0.0,
        0.0,
        9.860761315262648e-32,
        -4.440892098500626e-16,
        1.0
      ],
      "name": "Sketchfab_model"
    },
    {
      "children": [
        2
      ],
      "name": "root"
    },
    {
      "children": [
        3
      ],
      "matrix": [
        1.0,
        0.0,
        0.0,
        0.0,
        0.0,
        2.220446049250313e-16,
        1.0,
        0.0,
        0.0,
        -1.0,
        2.220446049250313e-16,
        0.0,
        0.0,
        0.0,
        0.0,
        1.0
      ],
      "name": "GLTF_SceneRootNode"
    },
    {
      "children": [
        4,
        5,
        6,
        7,
        8,
        9
      ],
      "name": "remesh.002_0"
    },
    {
      "mesh": 0,
      "name": "Object_4"
    },
    {
      "mesh": 1,
      "name": "Object_5"
    },
    {
      "mesh": 2,
      "name": "Object_6"
    },
    {
      "mesh": 3,
      "name": "Object_7"
    },
    {
      "mesh": 4,
      "name": "Object_8"
    },
    {
      "mesh": 5,
      "name": "Object_9"
    }
  ],
  "scene": 0,
  "scenes": [
    {
      "name": "Sketchfab_Scene",
      "nodes": [
        0
      ]
    }
  ]
}
