{
  "accessors": [
    {
      "bufferView": 3,
      "componentType": 5126,
      "count": 88,
      "max": [
        8551.908203125,
        7708.9208984375,
        1.0004085302352905
      ],
      "min": [
        6551.90771484375,
        6508.9208984375,
        0.00021298836509231478
      ],
      "type": "VEC3"
    },
    {
      "bufferView": 3,
      "byteOffset": 1056,
      "componentType": 5126,
      "count": 88,
      "max": [
        1.0,
        1.0,
        1.0
      ],
      "min": [
        -1.0,
        -1.0,
        -1.0
      ],
      "type": "VEC3"
    },
    {
      "bufferView": 4,
      "componentType": 5126,
      "count": 88,
      "max": [
        1.0,
        1.0,
        1.0,
        1.0
      ],
      "min": [
        -2.347020740150591e-24,
        -1.0,
        -1.0,
        -1.0
      ],
      "type": "VEC4"
    },
    {
      "bufferView": 2,
      "componentType": 5126,
      "count": 88,
      "max": [
        1.0,
        1.0
      ],
      "min": [
        0.0,
        0.0
      ],
      "type": "VEC2"
    },
    {
      "bufferView": 1,
      "componentType": 5125,
      "count": 228,
      "type": "SCALAR"
    },
    {
      "bufferView": 3,
      "byteOffset": 2112,
      "componentType": 5126,
      "count": 160,
      "max": [
        8567.9072265625,
        6518.76904296875,
        10.500041961669922
      ],
      "min": [
        6536.90771484375,
        6499.07275390625,
        -9.500089645385742
      ],
      "type": "VEC3"
    },
    {
      "bufferView": 3,
      "byteOffset": 4032,
      "componentType": 5126,
      "count": 160,
      "max": [
        1.0,
        0.9848094582557678,
        1.0
      ],
      "min": [
        -1.0,
        -0.9848094582557678,
        -1.0
      ],
      "type": "VEC3"
    },
    {
      "bufferView": 4,
      "byteOffset": 1408,
      "componentType": 5126,
      "count": 160,
      "max": [
        1.0,
        1.0,
        0.028915373608469963,
        1.0
      ],
      "min": [
        -1.0,
        -1.0,
        -0.028915079310536385,
        1.0
      ],
      "type": "VEC4"
    },
    {
      "bufferView": 2,
      "byteOffset": 704,
      "componentType": 5126,
      "count": 160,
      "max": [
        2.575000047683716,
        0.5500003099441528
      ],
      "min": [
        -1.565000057220459,
        0.4499996602535248
      ],
      "type": "VEC2"
    },
    {
      "bufferView": 1,
      "byteOffset": 912,
      "componentType": 5125,
      "count": 420,
      "type": "SCALAR"
    },
    {
      "bufferView": 5,
      "componentType": 5126,
      "count": 10,
      "max": [
        1.0,
        0.0,
        1.4120513569179649e-14,
        0.0,
        8.742277657347586e-08,
        1.0,
        1.6292068494294654e-07,
        0.0,
        0.0,
        1.6292068494294654e-07,
        1.0,
        0.0,
        8691.908203125,
        7575.58837890625,
        0.002340890234336257,
        1.0
      ],
      "min": [
        -1.0,
        -8.742277657347586e-08,
        0.0,
        0.0,
        0.0,
        -1.0,
        0.0,
        0.0,
        -1.2246468525851679e-16,
        0.0,
        1.0,
        0.0,
        0.0,
        0.0,
        -0.0015653594164177775,
        1.0
      ],
      "type": "MAT4"
    },
    {
      "bufferView": 0,
      "componentType": 5123,
      "count": 88,
      "type": "VEC4"
    },
    {
      "bufferView": 4,
      "byteOffset": 3968,
      "componentType": 5126,
      "count": 88,
      "max": [
        1.0,
        0.0,
        0.0,
        0.0
      ],
      "min": [
        0.0,
        0.0,
        0.0,
        0.0
      ],
      "type": "VEC4"
    },
    {
      "bufferView": 0,
      "byteOffset": 704,
      "componentType": 5123,
      "count": 160,
      "type": "VEC4"
    },
    {
      "bufferView": 4,
      "byteOffset": 5376,
      "componentType": 5126,
      "count": 160,
      "max": [
        1.0,
        0.0,
        0.0,
        0.0
      ],
      "min": [
        1.0,
        0.0,
        0.0,
        0.0
      ],
      "type": "VEC4"
    },
    {
      "bufferView": 6,
      "componentType": 5126,
      "count": 31,
      "max": [
        1.0
      ],
      "min": [
        0.0
      ],
      "type": "SCALAR"
    },
    {
      "bufferView": 7,
      "componentType": 5126,
      "count": 31,
      "max": [
        1.1656342394417152e-05,
        133.33316040039063,
        0.0
      ],
      "min": [
        0.0,
        0.000152587890625,
        -0.00048828125
      ],
      "type": "VEC3"
    },
    {
      "bufferView": 6,
      "byteOffset": 124,
      "componentType": 5126,
      "count": 61,
      "max": [
        2.0
      ],
      "min": [
        0.0
      ],
      "type": "SCALAR"
    },
    {
      "bufferView": 7,
      "byteOffset": 372,
      "componentType": 5126,
      "count": 61,
      "max": [
        1.1656384231173433e-05,
        133.3336639404297,
        -1.1641532182693481e-10
      ],
      "min": [
        0.0,
        0.0001678466796875,
        -0.00048828125
      ],
      "type": "VEC3"
    },
    {
      "bufferView": 6,
      "byteOffset": 368,
      "componentType": 5126,
      "count": 91,
      "max": [
        3.0
      ],
      "min": [
        0.0
      ],
      "type": "SCALAR"
    },
    {
      "bufferView": 7,
      "byteOffset": 1104,
      "componentType": 5126,
      "count": 91,
      "max": [
        1.1656384231173433e-05,
        133.3336639404297,
        -1.1641532182693481e-10
      ],
      "min": [
        0.0,
        0.0001678466796875,
        -0.00048828125
      ],
      "type": "VEC3"
    },
    {
      "bufferView": 6,
      "byteOffset": 732,
      "componentType": 5126,
      "count": 121,
      "max": [
        4.0
      ],
      "min": [
        0.0
      ],
      "type": "SCALAR"
    },
    {
      "bufferView": 7,
      "byteOffset": 2196,
      "componentType": 5126,
      "count": 121,
      "max": [
        1.1656384231173433e-05,
        133.3336639404297,
        2.168404344971009e-19
      ],
      "min": [
        0.0,
        0.0001678466796875,
        -0.00048828125
      ],
      "type": "VEC3"
    },
    {
      "bufferView": 6,
      "byteOffset": 1216,
      "componentType": 5126,
      "count": 151,
      "max": [
        5.0
      ],
      "min": [
        0.0
      ],
      "type": "SCALAR"
    },
    {
      "bufferView": 7,
      "byteOffset": 3648,
      "componentType": 5126,
      "count": 151,
      "max": [
        1.1656384231173433e-05,
        133.33367919921875,
        -1.1641532182693481e-10
      ],
      "min": [
        0.0,
        0.00018310546875,
        -0.00048828125
      ],
      "type": "VEC3"
    },
    {
      "bufferView": 6,
      "byteOffset": 1820,
      "componentType": 5126,
      "count": 181,
      "max": [
        6.0
      ],
      "min": [
        0.0
      ],
      "type": "SCALAR"
    },
    {
      "bufferView": 7,
      "byteOffset": 5460,
      "componentType": 5126,
      "count": 181,
      "max": [
        1.1656384231173433e-05,
        133.33367919921875,
        5.820766091346741e-11
      ],
      "min": [
        0.0,
        0.00018310546875,
        -0.00048828125
      ],
      "type": "VEC3"
    },
    {
      "bufferView": 6,
      "byteOffset": 2544,
      "componentType": 5126,
      "count": 211,
      "max": [
        7.0
      ],
      "min": [
        0.0
      ],
      "type": "SCALAR"
    },
    {
      "bufferView": 7,
      "byteOffset": 7632,
      "componentType": 5126,
      "count": 211,
      "max": [
        1.1656386050162837e-05,
        133.3336944580078,
        -2.9103830456733704e-11
      ],
      "min": [
        0.0,
        0.0001983642578125,
        -0.00048828125
      ],
      "type": "VEC3"
    },
    {
      "bufferView": 6,
      "byteOffset": 3388,
      "componentType": 5126,
      "count": 241,
      "max": [
        8.0
      ],
      "min": [
        0.0
      ],
      "type": "SCALAR"
    },
    {
      "bufferView": 7,
      "byteOffset": 10164,
      "componentType": 5126,
      "count": 241,
      "max": [
        1.1656386050162837e-05,
        133.3336944580078,
        -5.820766091346741e-11
      ],
      "min": [
        1.8189894035458565e-12,
        0.0001983642578125,
        -0.00048828125
      ],
      "type": "VEC3"
    }
  ],
  "animations": [
    {
      "channels": [
        {
          "sampler": 0,
          "target": {
            "node": 17,
            "path": "translation"
          }
        },
        {
          "sampler": 1,
          "target": {
            "node": 16,
            "path": "translation"
          }
        },
        {
          "sampler": 2,
          "target": {
            "node": 15,
            "path": "translation"
          }
        },
        {
          "sampler": 3,
          "target": {
            "node": 14,
            "path": "translation"
          }
        },
        {
          "sampler": 4,
          "target": {
            "node": 13,
            "path": "translation"
          }
        },
        {
          "sampler": 5,
          "target": {
            "node": 12,
            "path": "translation"
          }
        },
        {
          "sampler": 6,
          "target": {
            "node": 11,
            "path": "translation"
          }
        },
        {
          "sampler": 7,
          "target": {
            "node": 10,
            "path": "translation"
          }
        }
      ],
      "name": "Take 001",
      "samplers": [
        {
          "input": 15,
          "interpolation": "LINEAR",
          "output": 16
        },
        {
          "input": 17,
          "interpolation": "LINEAR",
          "output": 18
        },
        {
          "input": 19,
          "interpolation": "LINEAR",
          "output": 20
        },
        {
          "input": 21,
          "interpolation": "LINEAR",
          "output": 22
        },
        {
          "input": 23,
          "interpolation": "LINEAR",
          "output": 24
        },
        {
          "input": 25,
          "interpolation": "LINEAR",
          "output": 26
        },
        {
          "input": 27,
          "interpolation": "LINEAR",
          "output": 28
        },
        {
          "input": 29,
          "interpolation": "LINEAR",
          "output": 30
        }
      ]
    }
  ],
  "asset": {
    "extras": {
      "author": "Korea Craft & Design Foundation (https://sketchfab.com/KCDF)",
      "license": "CC-BY-4.0 (http://creativecommons.org/licenses/by/4.0/)",
      "source": "https://sketchfab.com/3d-models/kcdf-window-blind-hangul-01-d4389811ba09400096518a4b7bb228e7",
      "title": "KCDF-Window Blind_Hangul_01"
    },
    "generator": "Sketchfab-15.27.0",
    "version": "2.0"
  },
  "bufferViews": [
    {
      "buffer": 0,
      "byteLength": 1984,
      "byteStride": 8,
      "name": "shortBufferViews",
      "target": 34962
    },
    {
      "buffer": 0,
      "byteLength": 2592,
      "byteOffset": 1984,
      "name": "floatBufferViews",
      "target": 34963
    },
    {
      "buffer": 0,
      "byteLength": 1984,
      "byteOffset": 4576,
      "byteStride": 8,
      "name": "floatBufferViews",
      "target": 34962
    },
    {
      "buffer": 0,
      "byteLength": 5952,
      "byteOffset": 6560,
      "byteStride": 12,
      "name": "floatBufferViews",
      "target": 34962
    },
    {
      "buffer": 0,
      "byteLength": 7936,
      "byteOffset": 12512,
      "byteStride": 16,
      "name": "floatBufferViews",
      "target": 34962
    },
    {
      "buffer": 0,
      "byteLength": 640,
      "byteOffset": 20448,
      "name": "floatBufferViews"
    },
    {
      "buffer": 0,
      "byteLength": 4352,
      "byteOffset": 21088,
      "name": "floatBufferViews"
    },
    {
      "buffer": 0,
      "byteLength": 13056,
      "byteOffset": 25440,
      "byteStride": 12,
      "name": "floatBufferViews"
    }
  ],
  "buffers": [
    {
      "byteLength": 38496,
      "uri": "scene.bin"
    }
  ],
  "images": [
    {
      "uri": "textures/M_Bla_Hangle_baseColor.jpeg"
    },
    {
      "uri": "textures/M_Bla_Hangle_normal.png"
    },
    {
      "uri": "textures/M_Frame_baseColor.jpeg"
    },
    {
      "uri": "textures/M_Frame_normal.png"
    }
  ],
  "materials": [
    {
      "doubleSided": true,
      "name": "M_Bla_Hangle",
      "normalTexture": {
        "index": 1
      },
      "pbrMetallicRoughness": {
        "baseColorTexture": {
          "index": 0
        },
        "metallicFactor": 0.0,
        "roughnessFactor": 0.8929713596497552
      }
    },
    {
      "doubleSided": true,
      "name": "M_Frame",
      "normalTexture": {
        "index": 3
      },
      "pbrMetallicRoughness": {
        "baseColorTexture": {
          "index": 2
        },
        "metallicFactor": 0.0,
        "roughnessFactor": 0.8929713596497552
      }
    }
  ],
  "meshes": [
    {
      "name": "Tradition Blind_Hangle_M_Bla_Hangle_0",
      "primitives": [
        {
          "attributes": {
            "JOINTS_0": 11,
            "NORMAL": 1,
            "POSITION": 0,
            "TANGENT": 2,
            "TEXCOORD_0": 3,
            "WEIGHTS_0": 12
          },
          "indices": 4,
          "material": 0,
          "mode": 4
        }
      ]
    },
    {
      "name": "Tradition Blind_Hangle_M_Frame_0",
      "primitives": [
        {
          "attributes": {
            "JOINTS_0": 13,
            "NORMAL": 6,
            "POSITION": 5,
            "TANGENT": 7,
            "TEXCOORD_0": 8,
            "WEIGHTS_0": 14
          },
          "indices": 9,
          "material": 1,
          "mode": 4
        }
      ]
    }
  ],
  "nodes": [
    {
      "children": [
        1
      ],
      "matrix": [
        1.0,
        0.0,
        0.0,
        0.0,
        0.0,
        2.220446049250313e-16,
        -1.0,
        0.0,
        0.0,
        1.0,
        2.220446049250313e-16,
        0.0,
        0.0,
        0.0,
        0.0,
        1.0
      ],
      "name": "Sketchfab_model"
    },
    {
      "children": [
        2
      ],
      "matrix": [
        0.0010000000474974513,
        0.0,
        0.0,
        0.0,
        0.0,
        0.0,
        0.0010000000474974513,
        0.0,
        0.0,
        -0.0010000000474974513,
        0.0,
        0.0,
        0.0,
        0.0,
        0.0,
        1.0
      ],
      "name": "Tradition Blind_Hanbok.fbx"
    },
    {
      "children": [
        3
      ],
      "name": "Object_2"
    },
    {
      "children": [
        4
      ],
      "name": "RootNode"
    },
    {
      "children": [
        5,
        7,
        8,
        6,
        18
      ],
      "name": "Object_4"
    },
    {
      "children": [
        9
      ],
      "name": "_rootJoint"
    },
    {
      "matrix": [
        1.0,
        -2.3470207033739808e-24,
        0.0,
        0.0,
        2.3470207033739808e-24,
        1.0,
        1.629206848817157e-07,
        0.0,
        -3.8237822042525495e-31,
        -1.6292068488171566e-07,
        0.9999999999999998,
        0.0,
        7551.907714843749,
        7108.9208984375,
        0.00031074078287929296,
        1.0
      ],
      "name": "Object_6"
    },
    {
      "mesh": 0,
      "name": "Object_7",
      "skin": 0
    },
    {
      "mesh": 1,
      "name": "Object_8",
      "skin": 0
    },
    {
      "children": [
        10
      ],
      "name": "Dummy029_00",
      "rotation": [
        3.4995123864164056e-15,
        8.146034247147327e-08,
        1.0,
        4.371138828673793e-08
      ],
      "translation": [
        8691.9091796875,
        7575.58740234375,
        0.00033113942481577396
      ]
    },
    {
      "children": [
        11
      ],
      "name": "Dummy030_01",
      "rotation": [
        0.0,
        -1.7256332301709633e-31,
        3.2588755129025528e-24,
        1.0
      ],
      "translation": [
        0.0,
        133.33349609375,
        -0.0004882811335846782
      ]
    },
    {
      "children": [
        12
      ],
      "name": "Dummy031_02",
      "rotation": [
        -0.0,
        1.0846837446788912e-30,
        3.2588755129025528e-24,
        1.0
      ],
      "translation": [
        0.0,
        133.33349609375,
        -0.00048828125
      ]
    },
    {
      "children": [
        13
      ],
      "name": "Dummy032_03",
      "rotation": [
        -0.0,
        4.437342591868191e-31,
        3.2588755129025528e-24,
        1.0
      ],
      "translation": [
        0.0,
        133.33349609375,
        -0.0004882813664153218
      ]
    },
    {
      "children": [
        14
      ],
      "name": "Dummy033_04",
      "rotation": [
        -0.0,
        7.395570986446986e-31,
        3.2588755129025528e-24,
        1.0
      ],
      "translation": [
        0.0,
        133.33349609375,
        -0.0004882811335846782
      ]
    },
    {
      "children": [
        15
      ],
      "name": "Dummy034_05",
      "rotation": [
        0.0,
        -2.465190328815662e-31,
        3.2588755129025528e-24,
        1.0
      ],
      "translation": [
        0.0,
        133.33349609375,
        -0.00048828101716935635
      ]
    },
    {
      "children": [
        16
      ],
      "name": "Dummy035_06",
      "rotation": [
        -0.0,
        9.367723249499515e-31,
        3.2588755129025528e-24,
        1.0
      ],
      "translation": [
        0.0,
        133.33349609375,
        -0.00048828125
      ]
    },
    {
      "children": [
        17
      ],
      "name": "Dummy036_07",
      "rotation": [
        -0.0,
        1.4791141972893971e-31,
        3.2588755129025528e-24,
        1.0
      ],
      "translation": [
        0.0,
        133.33349609375,
        -0.0004882811335846782
      ]
    },
    {
      "name": "Dummy037_08",
      "rotation": [
        -0.0,
        1.4791141972893971e-31,
        3.2588755129025528e-24,
        1.0
      ],
      "translation": [
        0.0,
        133.3330078125,
        -0.0004882813664153218
      ]
    },
    {
      "name": "Tradition Blind_Hangle",
      "rotation": [
        8.146034247147327e-08,
        0.0,
        0.0,
        1.0
      ],
      "translation": [
        7551.90771484375,
        7108.9208984375,
        0.00031074078287929296
      ]
    }
  ],
  "samplers": [
    {
      "magFilter": 9729,
      "minFilter": 9987,
      "wrapS": 10497,
      "wrapT": 10497
    }
  ],
  "scene": 0,
  "scenes": [
    {
      "name": "Sketchfab_Scene",
      "nodes": [
        0
      ]
    }
  ],
  "skins": [
    {
      "inverseBindMatrices": 10,
      "joints": [
        5,
        9,
        10,
        11,
        12,
        13,
        14,
        15,
        16,
        17
      ],
      "skeleton": 5
    }
  ],
  "textures": [
    {
      "sampler": 0,
      "source": 0
    },
    {
      "sampler": 0,
      "source": 1
    },
    {
      "sampler": 0,
      "source": 2
    },
    {
      "sampler": 0,
      "source": 3
    }
  ]
}
