{
  "accessors": [
    {
      "bufferView": 2,
      "componentType": 5126,
      "count": 12,
      "max": [
        10.0,
        4.1436872482299805,
        0.0
      ],
      "min": [
        0.0,
        0.0,
        -10.0
      ],
      "type": "VEC3"
    },
    {
      "bufferView": 2,
      "byteOffset": 144,
      "componentType": 5126,
      "count": 12,
      "max": [
        -0.08076243102550507,
        0.9749005436897278,
        0.2656860053539276
      ],
      "min": [
        -0.295057475566864,
        0.9190860390663147,
        0.037652429193258286
      ],
      "type": "VEC3"
    },
    {
      "bufferView": 1,
      "componentType": 5126,
      "count": 12,
      "max": [
        1.0,
        1.0
      ],
      "min": [
        0.0,
        0.0
      ],
      "type": "VEC2"
    },
    {
      "bufferView": 1,
      "byteOffset": 96,
      "componentType": 5126,
      "count": 12,
      "max": [
        1.0,
        1.0
      ],
      "min": [
        0.0,
        0.0
      ],
      "type": "VEC2"
    },
    {
      "bufferView": 0,
      "componentType": 5125,
      "count": 36,
      "type": "SCALAR"
    },
    {
      "bufferView": 2,
      "byteOffset": 288,
      "componentType": 5126,
      "count": 12,
      "max": [
        5.0,
        2.0718436241149902,
        5.0
      ],
      "min": [
        -5.0,
        -2.0718436241149902,
        -5.0
      ],
      "type": "VEC3"
    },
    {
      "bufferView": 2,
      "byteOffset": 432,
      "componentType": 5126,
      "count": 12,
      "max": [
        -0.08076243102550507,
        0.9749005436897278,
        0.26568603515625
      ],
      "min": [
        -0.2950575053691864,
        0.9190860390663147,
        0.03765243664383888
      ],
      "type": "VEC3"
    },
    {
      "bufferView": 1,
      "byteOffset": 192,
      "componentType": 5126,
      "count": 12,
      "max": [
        1.0,
        1.0
      ],
      "min": [
        0.0,
        0.0
      ],
      "type": "VEC2"
    },
    {
      "bufferView": 1,
      "byteOffset": 288,
      "componentType": 5126,
      "count": 12,
      "max": [
        1.0,
        1.0
      ],
      "min": [
        0.0,
        0.0
      ],
      "type": "VEC2"
    },
    {
      "bufferView": 0,
      "byteOffset": 144,
      "componentType": 5125,
      "count": 36,
      "type": "SCALAR"
    },
    {
      "bufferView": 2,
      "byteOffset": 576,
      "componentType": 5126,
      "count": 12,
      "max": [
        10.0,
        4.1436872482299805,
        0.0
      ],
      "min": [
        0.0,
        0.0,
        -10.0
      ],
      "type": "VEC3"
    },
    {
      "bufferView": 2,
      "byteOffset": 720,
      "componentType": 5126,
      "count": 12,
      "max": [
        -0.08076243102550507,
        0.9749005436897278,
        0.2656860053539276
      ],
      "min": [
        -0.295057475566864,
        0.9190860390663147,
        0.037652429193258286
      ],
      "type": "VEC3"
    },
    {
      "bufferView": 1,
      "byteOffset": 384,
      "componentType": 5126,
      "count": 12,
      "max": [
        1.0,
        1.0
      ],
      "min": [
        0.0,
        0.0
      ],
      "type": "VEC2"
    },
    {
      "bufferView": 1,
      "byteOffset": 480,
      "componentType": 5126,
      "count": 12,
      "max": [
        1.0,
        1.0
      ],
      "min": [
        0.0,
        0.0
      ],
      "type": "VEC2"
    },
    {
      "bufferView": 0,
      "byteOffset": 288,
      "componentType": 5125,
      "count": 36,
      "type": "SCALAR"
    },
    {
      "bufferView": 2,
      "byteOffset": 864,
      "componentType": 5126,
      "count": 12,
      "max": [
        10.0,
        4.1436872482299805,
        0.0
      ],
      "min": [
        0.0,
        0.0,
        -10.0
      ],
      "type": "VEC3"
    },
    {
      "bufferView": 2,
      "byteOffset": 1008,
      "componentType": 5126,
      "count": 12,
      "max": [
        -0.08076243102550507,
        0.9749005436897278,
        0.2656860053539276
      ],
      "min": [
        -0.295057475566864,
        0.9190860390663147,
        0.037652429193258286
      ],
      "type": "VEC3"
    },
    {
      "bufferView": 1,
      "byteOffset": 576,
      "componentType": 5126,
      "count": 12,
      "max": [
        1.0,
        1.0
      ],
      "min": [
        0.0,
        0.0
      ],
      "type": "VEC2"
    },
    {
      "bufferView": 1,
      "byteOffset": 672,
      "componentType": 5126,
      "count": 12,
      "max": [
        1.0,
        1.0
      ],
      "min": [
        0.0,
        0.0
      ],
      "type": "VEC2"
    },
    {
      "bufferView": 0,
      "byteOffset": 432,
      "componentType": 5125,
      "count": 36,
      "type": "SCALAR"
    },
    {
      "bufferView": 2,
      "byteOffset": 1152,
      "componentType": 5126,
      "count": 12,
      "max": [
        10.0,
        4.1436872482299805,
        0.0
      ],
      "min": [
        0.0,
        0.0,
        -10.0
      ],
      "type": "VEC3"
    },
    {
      "bufferView": 2,
      "byteOffset": 1296,
      "componentType": 5126,
      "count": 12,
      "max": [
        -0.08076243102550507,
        0.9749005436897278,
        0.2656860053539276
      ],
      "min": [
        -0.295057475566864,
        0.9190860390663147,
        0.037652429193258286
      ],
      "type": "VEC3"
    },
    {
      "bufferView": 1,
      "byteOffset": 768,
      "componentType": 5126,
      "count": 12,
      "max": [
        1.0,
        1.0
      ],
      "min": [
        0.0,
        0.0
      ],
      "type": "VEC2"
    },
    {
      "bufferView": 1,
      "byteOffset": 864,
      "componentType": 5126,
      "count": 12,
      "max": [
        1.0,
        1.0
      ],
      "min": [
        0.0,
        0.0
      ],
      "type": "VEC2"
    },
    {
      "bufferView": 0,
      "byteOffset": 576,
      "componentType": 5125,
      "count": 36,
      "type": "SCALAR"
    },
    {
      "bufferView": 2,
      "byteOffset": 1440,
      "componentType": 5126,
      "count": 12,
      "max": [
        10.0,
        4.1436872482299805,
        0.0
      ],
      "min": [
        0.0,
        0.0,
        -10.0
      ],
      "type": "VEC3"
    },
    {
      "bufferView": 2,
      "byteOffset": 1584,
      "componentType": 5126,
      "count": 12,
      "max": [
        -0.08076243102550507,
        0.9749005436897278,
        0.2656860053539276
      ],
      "min": [
        -0.295057475566864,
        0.9190860390663147,
        0.037652429193258286
      ],
      "type": "VEC3"
    },
    {
      "bufferView": 1,
      "byteOffset": 960,
      "componentType": 5126,
      "count": 12,
      "max": [
        1.0,
        1.0
      ],
      "min": [
        0.0,
        0.0
      ],
      "type": "VEC2"
    },
    {
      "bufferView": 1,
      "byteOffset": 1056,
      "componentType": 5126,
      "count": 12,
      "max": [
        1.0,
        1.0
      ],
      "min": [
        0.0,
        0.0
      ],
      "type": "VEC2"
    },
    {
      "bufferView": 0,
      "byteOffset": 720,
      "componentType": 5125,
      "count": 36,
      "type": "SCALAR"
    }
  ],
  "asset": {
    "extras": {
      "author": "shockeova (https://sketchfab.com/shockeova)",
      "license": "CC-BY-4.0 (http://creativecommons.org/licenses/by/4.0/)",
      "source": "https://sketchfab.com/3d-models/flower-1cdf9df6b941460bb70b7758c9e416ec",
      "title": "Flower"
    },
    "generator": "Sketchfab-12.68.0",
    "version": "2.0"
  },
  "bufferViews": [
    {
      "buffer": 0,
      "byteLength": 864,
      "name": "floatBufferViews",
      "target": 34963
    },
    {
      "buffer": 0,
      "byteLength": 1152,
      "byteOffset": 864,
      "byteStride": 8,
      "name": "floatBufferViews",
      "target": 34962
    },
    {
      "buffer": 0,
      "byteLength": 1728,
      "byteOffset": 2016,
      "byteStride": 12,
      "name": "floatBufferViews",
      "target": 34962
    }
  ],
  "buffers": [
    {
      "byteLength": 3744,
      "uri": "scene.bin"
    }
  ],
  "images": [
    {
      "uri": "textures/lambert2_baseColor.png"
    }
  ],
  "materials": [
    {
      "alphaMode": "BLEND",
      "doubleSided": true,
      "name": "lambert2",
      "pbrMetallicRoughness": {
        "baseColorTexture": {
          "index": 0
        },
        "metallicFactor": 0.0,
        "roughnessFactor": 0.6
      }
    }
  ],
  "meshes": [
    {
      "name": "pPlane1_lambert2_0",
      "primitives": [
        {
          "attributes": {
            "NORMAL": 1,
            "POSITION": 0,
            "TEXCOORD_0": 2,
            "TEXCOORD_1": 3
          },
          "indices": 4,
          "material": 0,
          "mode": 4
        }
      ]
    },
    {
      "name": "pPlane2_lambert2_0",
      "primitives": [
        {
          "attributes": {
            "NORMAL": 6,
            "POSITION": 5,
            "TEXCOORD_0": 7,
            "TEXCOORD_1": 8
          },
          "indices": 9,
          "material": 0,
          "mode": 4
        }
      ]
    },
    {
      "name": "pPlane3_lambert2_0",
      "primitives": [
        {
          "attributes": {
            "NORMAL": 11,
            "POSITION": 10,
            "TEXCOORD_0": 12,
            "TEXCOORD_1": 13
          },
          "indices": 14,
          "material": 0,
          "mode": 4
        }
      ]
    },
    {
      "name": "pPlane4_lambert2_0",
      "primitives": [
        {
          "attributes": {
            "NORMAL": 16,
            "POSITION": 15,
            "TEXCOORD_0": 17,
            "TEXCOORD_1": 18
          },
          "indices": 19,
          "material": 0,
          "mode": 4
        }
      ]
    },
    {
      "name": "pPlane5_lambert2_0",
      "primitives": [
        {
          "attributes": {
            "NORMAL": 21,
            "POSITION": 20,
            "TEXCOORD_0": 22,
            "TEXCOORD_1": 23
          },
          "indices": 24,
          "material": 0,
          "mode": 4
        }
      ]
    },
    {
      "name": "pPlane6_lambert2_0",
      "primitives": [
        {
          "attributes": {
            "NORMAL": 26,
            "POSITION": 25,
            "TEXCOORD_0": 27,
            "TEXCOORD_1": 28
          },
          "indices": 29,
          "material": 0,
          "mode": 4
        }
      ]
    }
  ],
  "nodes": [
    {
      "children": [
        1
      ],
      "matrix": [
        1.0,
        0.0,
        0.0,
        0.0,
        0.0,
        2.220446049250313e-16,
        -1.0,
        0.0,
        0.0,
        1.0,
        2.220446049250313e-16,
        0.0,
        0.0,
        0.0,
        0.0,
        1.0
      ],
      "name": "Sketchfab_model"
    },
    {
      "children": [
        2
      ],
      "matrix": [
        1.0,
        0.0,
        0.0,
        0.0,
        0.0,
        0.0,
        1.0,
        0.0,
        0.0,
        -1.0,
        0.0,
        0.0,
        0.0,
        0.0,
        0.0,
        1.0
      ],
      "name": "fdd70f5348b845fea96a0413ee0456cd.fbx"
    },
    {
      "children": [
        3,
        5,
        7,
        9,
        11,
        13
      ],
      "name": "RootNode"
    },
    {
      "children": [
        4
      ],
      "name": "pPlane1"
    },
    {
      "mesh": 0,
      "name": "pPlane1_lambert2_0"
    },
    {
      "children": [
        6
      ],
      "matrix": [
        1.0,
        0.0,
        0.0,
        0.0,
        0.0,
        1.0,
        0.0,
        0.0,
        0.0,
        0.0,
        1.0,
        0.0,
        5.0,
        2.0718436241149902,
        -5.0,
        1.0
      ],
      "name": "pPlane2"
    },
    {
      "mesh": 1,
      "name": "pPlane2_lambert2_0"
    },
    {
      "children": [
        8
      ],
      "matrix": [
        0.30901699437494756,
        0.0,
        -0.9510565162951536,
        0.0,
        0.0,
        1.0,
        0.0,
        0.0,
        0.9510565162951536,
        0.0,
        0.30901699437494756,
        0.0,
        0.0,
        0.0,
        0.0,
        1.0
      ],
      "name": "pPlane3"
    },
    {
      "mesh": 2,
      "name": "pPlane3_lambert2_0"
    },
    {
      "children": [
        10
      ],
      "matrix": [
        -0.8090169943749477,
        9.907600726170916e-17,
        -0.5877852522924732,
        0.0,
        5.0481747134135645e-17,
        1.0,
        9.907600726170916e-17,
        0.0,
        0.5877852522924732,
        5.0481747134135645e-17,
        -0.8090169943749477,
        0.0,
        0.0,
        0.0,
        0.0,
        1.0
      ],
      "name": "pPlane4"
    },
    {
      "mesh": 3,
      "name": "pPlane4_lambert2_0"
    },
    {
      "children": [
        12
      ],
      "matrix": [
        -0.8090169943749477,
        9.907600726170918e-17,
        0.587785252292473,
        0.0,
        1.94447612695335e-16,
        1.0,
        9.907600726170916e-17,
        0.0,
        -0.587785252292473,
        1.9444761269533497e-16,
        -0.8090169943749477,
        0.0,
        0.0,
        0.0,
        0.0,
        1.0
      ],
      "name": "pPlane5"
    },
    {
      "mesh": 4,
      "name": "pPlane5_lambert2_0"
    },
    {
      "children": [
        14
      ],
      "matrix": [
        0.3090169943749471,
        0.0,
        0.9510565162951536,
        0.0,
        0.0,
        1.0,
        0.0,
        0.0,
        -0.9510565162951536,
        0.0,
        0.3090169943749471,
        0.0,
        0.0,
        0.0,
        0.0,
        1.0
      ],
      "name": "pPlane6"
    },
    {
      "mesh": 5,
      "name": "pPlane6_lambert2_0"
    }
  ],
  "samplers": [
    {
      "magFilter": 9729,
      "minFilter": 9987,
      "wrapS": 10497,
      "wrapT": 10497
    }
  ],
  "scene": 0,
  "scenes": [
    {
      "name": "Sketchfab_Scene",
      "nodes": [
        0
      ]
    }
  ],
  "textures": [
    {
      "sampler": 0,
      "source": 0
    }
  ]
}
